<svg width="16" height="16" viewBox="0 0 16 16" fill="none" xmlns="http://www.w3.org/2000/svg">
<path d="M8 13.3333H1.33333V12H5.16667C4.68 10.1267 3.20667 8.65999 1.33333 8.17332C1.76 8.06666 2.20667 7.99999 2.66667 7.99999C5.61333 7.99999 8 10.3867 8 13.3333ZM14.6667 8.17332C14.24 8.06666 13.7933 7.99999 13.3333 7.99999C11.38 7.99999 9.68 9.05332 8.74667 10.62C8.94 11.06 9.1 11.52 9.19333 12C9.28 12.4333 9.32667 12.88 9.32667 13.3333H14.66V12H10.8267C11.32 10.1267 12.7933 8.65999 14.6667 8.17332ZM10.4267 7.34666C10.9467 5.95332 11.9133 4.78666 13.1533 4.01332C10.2933 4.10666 8 6.44666 8 9.33332C8 9.33999 8 9.34666 8 9.34666C8.63333 8.49999 9.46667 7.81332 10.4267 7.34666ZM7.61333 5.89999C7.05333 4.43999 5.92 3.25999 4.46667 2.66666C5.42667 3.90666 6 5.45332 6 7.13999C6 7.27999 5.98 7.41332 5.97333 7.54666C6.26 7.70666 6.52667 7.89332 6.78667 8.09332C6.92667 7.30666 7.22 6.56666 7.61333 5.89999Z" fill="#53F253"/>
</svg>
