<svg width="25" height="25" viewBox="0 0 25 25" fill="none" xmlns="http://www.w3.org/2000/svg">
<path d="M22.209 9.98499H17.4226L13.0459 3.42992C12.856 3.15013 12.5363 3.01023 12.2165 3.01023C11.8967 3.01023 11.577 3.15013 11.3871 3.43991L7.0104 9.98499H2.224C1.67441 9.98499 1.22475 10.4347 1.22475 10.9842C1.22475 11.0742 1.23474 11.1641 1.26472 11.254L3.80281 20.5171C4.03264 21.3565 4.80206 21.976 5.72137 21.976H18.7116C19.6309 21.976 20.4004 21.3565 20.6402 20.5171L23.1783 11.254L23.2082 10.9842C23.2082 10.4347 22.7586 9.98499 22.209 9.98499ZM12.2165 5.78815L15.0144 9.98499H9.4186L12.2165 5.78815ZM18.7116 19.9775L5.73136 19.9875L3.53301 11.9835H20.91L18.7116 19.9775ZM12.2165 13.982C11.1173 13.982 10.218 14.8813 10.218 15.9805C10.218 17.0797 11.1173 17.979 12.2165 17.979C13.3157 17.979 14.215 17.0797 14.215 15.9805C14.215 14.8813 13.3157 13.982 12.2165 13.982Z" fill="#676767"/>
</svg>
