<svg width="21" height="21" viewBox="0 0 21 21" fill="none" xmlns="http://www.w3.org/2000/svg">
<path d="M9.69311 5.49671H11.6916V7.49521H9.69311V5.49671ZM9.69311 9.49371H11.6916V15.4892H9.69311V9.49371ZM10.6924 0.500458C5.1765 0.500458 0.69986 4.9771 0.69986 10.493C0.69986 16.0088 5.1765 20.4855 10.6924 20.4855C16.2082 20.4855 20.6849 16.0088 20.6849 10.493C20.6849 4.9771 16.2082 0.500458 10.6924 0.500458ZM10.6924 18.487C6.28567 18.487 2.69836 14.8996 2.69836 10.493C2.69836 6.08626 6.28567 2.49896 10.6924 2.49896C15.099 2.49896 18.6864 6.08626 18.6864 10.493C18.6864 14.8996 15.099 18.487 10.6924 18.487Z" fill="white"/>
</svg>
