<svg width="21" height="21" viewBox="0 0 21 21" fill="none" xmlns="http://www.w3.org/2000/svg">
<path d="M9.69292 5.62375H11.6914V7.62225H9.69292V5.62375ZM9.69292 9.62075H11.6914V15.6162H9.69292V9.62075ZM10.6922 0.627502C5.17632 0.627502 0.699677 5.10414 0.699677 10.62C0.699677 16.1359 5.17632 20.6125 10.6922 20.6125C16.208 20.6125 20.6847 16.1359 20.6847 10.62C20.6847 5.10414 16.208 0.627502 10.6922 0.627502ZM10.6922 18.614C6.28548 18.614 2.69818 15.0267 2.69818 10.62C2.69818 6.21331 6.28548 2.626 10.6922 2.626C15.0989 2.626 18.6862 6.21331 18.6862 10.62C18.6862 15.0267 15.0989 18.614 10.6922 18.614Z" fill="white"/>
</svg>
