<svg width="23" height="23" viewBox="0 0 23 23" fill="none" xmlns="http://www.w3.org/2000/svg">
<path d="M16.8157 1.66381V3.45093H19.4964V6.13161H21.2835V1.66381H16.8157Z" fill="#676767"/>
<path d="M19.4964 19.535H16.8157V21.3221H21.2835V16.8543H19.4964V19.535Z" fill="#676767"/>
<path d="M3.4123 3.45093H6.09298V1.66381H1.62518V6.13161H3.4123V3.45093Z" fill="#676767"/>
<path d="M3.4123 16.8543H1.62518V21.3221H6.09298V19.535H3.4123V16.8543Z" fill="#676767"/>
<path d="M17.7093 7.89192L11.4543 4.29088L5.19942 7.89192V15.094L11.4543 18.6951L17.7093 15.094V7.89192ZM10.5608 16.1127L6.98654 14.0575V9.92031L10.5608 12.0023V16.1127ZM11.4543 10.4564L7.91584 8.39232L11.4543 6.355L14.9928 8.39232L11.4543 10.4564ZM15.9221 14.0575L12.3479 16.1127V12.0023L15.9221 9.92031V14.0575Z" fill="#676767"/>
</svg>
