<svg width="23" height="23" viewBox="0 0 23 23" fill="none" xmlns="http://www.w3.org/2000/svg">
<path d="M16.8157 1.6638V3.45092H19.4964V6.1316H21.2835V1.6638H16.8157Z" fill="#676767"/>
<path d="M19.4964 19.535H16.8157V21.3221H21.2835V16.8543H19.4964V19.535Z" fill="#676767"/>
<path d="M3.41233 3.45092H6.09301V1.6638H1.62521V6.1316H3.41233V3.45092Z" fill="#676767"/>
<path d="M3.41233 16.8543H1.62521V21.3221H6.09301V19.535H3.41233V16.8543Z" fill="#676767"/>
<path d="M17.7093 7.89191L11.4544 4.29086L5.19945 7.89191V15.094L11.4544 18.6951L17.7093 15.094V7.89191ZM10.5608 16.1127L6.98657 14.0575V9.92029L10.5608 12.0023V16.1127ZM11.4544 10.4564L7.91588 8.3923L11.4544 6.35499L14.9929 8.3923L11.4544 10.4564ZM15.9222 14.0575L12.3479 16.1127V12.0023L15.9222 9.92029V14.0575Z" fill="#676767"/>
</svg>
