<svg width="16" height="16" viewBox="0 0 16 16" fill="none" xmlns="http://www.w3.org/2000/svg">
<path d="M12.6667 2H3.33333C2.6 2 2 2.6 2 3.33333V12.6667C2 13.4 2.6 14 3.33333 14H12.6667C13.4 14 14 13.4 14 12.6667V3.33333C14 2.6 13.4 2 12.6667 2ZM12.6667 12.6667H3.33333V3.33333H12.6667V12.6667ZM8 4C6.89333 4 6 4.89333 6 6C6 7.10667 6.89333 8 8 8C9.10667 8 10 7.10667 10 6C10 4.89333 9.10667 4 8 4ZM7.33333 6.33333H6.66667V5.66667H7.33333V6.33333ZM8.33333 6.33333H7.66667V5.66667H8.33333V6.33333ZM9.33333 6.33333H8.66667V5.66667H9.33333V6.33333Z" fill="#61A6E5"/>
</svg>
