<svg width="21" height="21" viewBox="0 0 21 21" fill="none" xmlns="http://www.w3.org/2000/svg">
<path d="M9.69291 5.49671H11.6914V7.49521H9.69291V5.49671ZM9.69291 9.49371H11.6914V15.4892H9.69291V9.49371ZM10.6922 0.500465C5.1763 0.500465 0.699664 4.9771 0.699664 10.493C0.699664 16.0088 5.1763 20.4855 10.6922 20.4855C16.208 20.4855 20.6847 16.0088 20.6847 10.493C20.6847 4.9771 16.208 0.500465 10.6922 0.500465ZM10.6922 18.487C6.28547 18.487 2.69816 14.8997 2.69816 10.493C2.69816 6.08627 6.28547 2.49897 10.6922 2.49897C15.0989 2.49897 18.6862 6.08627 18.6862 10.493C18.6862 14.8997 15.0989 18.487 10.6922 18.487Z" fill="white"/>
</svg>
